<?xml version="1.0" encoding="UTF-8" standalone="no"?>
<!DOCTYPE svg PUBLIC "-//W3C//DTD SVG 1.1//EN"
 "http://www.w3.org/Graphics/SVG/1.1/DTD/svg11.dtd">
<!-- Generated by graphviz version 3.0.0 (20220315.2325)
 -->
<!-- Title: G Pages: 1 -->
<svg width="1386pt" height="985pt"
 viewBox="0.00 0.00 1386.02 985.29" xmlns="http://www.w3.org/2000/svg" xmlns:xlink="http://www.w3.org/1999/xlink">
<g id="graph0" class="graph" transform="scale(1 1) rotate(0) translate(4 981.29)">
<title>G</title><style>.edge>path:hover{stroke-width:8}</style>
<polygon fill="white" stroke="transparent" points="-4,4 -4,-981.29 1382.02,-981.29 1382.02,4 -4,4"/>
<!-- linodenet -->
<g id="node1" class="node">
<title>linodenet</title><style>.edge>path:hover{stroke-width:8}</style>
<ellipse fill="#bd0404" stroke="black" cx="456.05" cy="-959.29" rx="36.49" ry="18"/>
<text text-anchor="middle" x="456.05" y="-956.79" font-family="Helvetica,sans-Serif" font-size="10.00" fill="#ffffff">linodenet</text>
</g>
<!-- linodenet_config -->
<g id="node2" class="node">
<title>linodenet_config</title><style>.edge>path:hover{stroke-width:8}</style>
<ellipse fill="#c82323" stroke="black" cx="1332.05" cy="-115.2" rx="45.92" ry="21.43"/>
<text text-anchor="middle" x="1332.05" y="-118.2" font-family="Helvetica,sans-Serif" font-size="10.00" fill="#ffffff">linodenet.</text>
<text text-anchor="middle" x="1332.05" y="-107.2" font-family="Helvetica,sans-Serif" font-size="10.00" fill="#ffffff">config</text>
</g>
<!-- linodenet_config&#45;&gt;linodenet -->
<g id="edge1" class="edge">
<title>linodenet_config&#45;&gt;linodenet</title><style>.edge>path:hover{stroke-width:8}</style>
<path fill="none" stroke="black" d="M1332.05,-173.41C1283.96,-233.7 1332.05,-269.81 1332.05,-346.94 1332.05,-346.94 1332.05,-346.94 1332.05,-529.36 1332.05,-606.48 1325.97,-626 1332.05,-702.89"/>
</g>
<!-- linodenet_util__util -->
<g id="node29" class="node">
<title>linodenet_util__util</title><style>.edge>path:hover{stroke-width:8}</style>
<ellipse fill="#d02424" stroke="black" cx="689.05" cy="-246.18" rx="45.92" ry="28.98"/>
<text text-anchor="middle" x="689.05" y="-254.68" font-family="Helvetica,sans-Serif" font-size="10.00" fill="#ffffff">linodenet.</text>
<text text-anchor="middle" x="689.05" y="-243.68" font-family="Helvetica,sans-Serif" font-size="10.00" fill="#ffffff">util.</text>
<text text-anchor="middle" x="689.05" y="-232.68" font-family="Helvetica,sans-Serif" font-size="10.00" fill="#ffffff">_util</text>
</g>
<!-- linodenet_config&#45;&gt;linodenet_util__util -->
<g id="edge2" class="edge">
<title>linodenet_config&#45;&gt;linodenet_util__util</title><style>.edge>path:hover{stroke-width:8}</style>
<path fill="none" stroke="black" d="M1337.8,-136.44C1339.84,-148.15 1339.97,-162.49 1332.05,-172.41"/>
<path fill="none" stroke="black" d="M1332.05,-173.41C1295.71,-218.96 895.77,-237.82 745.59,-243.33"/>
<polygon fill="#c82323" stroke="black" points="745.09,-239.85 735.22,-243.71 745.34,-246.84 745.09,-239.85"/>
</g>
<!-- linodenet_config__config -->
<g id="node3" class="node">
<title>linodenet_config__config</title><style>.edge>path:hover{stroke-width:8}</style>
<ellipse fill="#c24747" stroke="black" cx="1332.05" cy="-28.99" rx="45.92" ry="28.98"/>
<text text-anchor="middle" x="1332.05" y="-37.49" font-family="Helvetica,sans-Serif" font-size="10.00" fill="#ffffff">linodenet.</text>
<text text-anchor="middle" x="1332.05" y="-26.49" font-family="Helvetica,sans-Serif" font-size="10.00" fill="#ffffff">config.</text>
<text text-anchor="middle" x="1332.05" y="-15.49" font-family="Helvetica,sans-Serif" font-size="10.00" fill="#ffffff">_config</text>
</g>
<!-- linodenet_config__config&#45;&gt;linodenet_config -->
<g id="edge3" class="edge">
<title>linodenet_config__config&#45;&gt;linodenet_config</title><style>.edge>path:hover{stroke-width:8}</style>
<path fill="none" stroke="black" d="M1332.05,-58.03C1332.05,-66.24 1332.05,-75.25 1332.05,-83.61"/>
<polygon fill="#c24747" stroke="black" points="1328.55,-83.74 1332.05,-93.74 1335.55,-83.74 1328.55,-83.74"/>
</g>
<!-- linodenet_initializations -->
<g id="node4" class="node">
<title>linodenet_initializations</title><style>.edge>path:hover{stroke-width:8}</style>
<ellipse fill="#db0505" stroke="black" cx="449.05" cy="-434.14" rx="58.88" ry="21.43"/>
<text text-anchor="middle" x="449.05" y="-437.14" font-family="Helvetica,sans-Serif" font-size="10.00" fill="#ffffff">linodenet.</text>
<text text-anchor="middle" x="449.05" y="-426.14" font-family="Helvetica,sans-Serif" font-size="10.00" fill="#ffffff">initializations</text>
</g>
<!-- linodenet_initializations&#45;&gt;linodenet -->
<g id="edge4" class="edge">
<title>linodenet_initializations&#45;&gt;linodenet</title><style>.edge>path:hover{stroke-width:8}</style>
<path fill="none" stroke="black" d="M439.92,-455.26C434.12,-466.65 425.87,-480.71 416.05,-491.36"/>
<path fill="none" stroke="black" d="M416.05,-492.36C369.45,-542.91 297.35,-532.93 306.05,-601.13"/>
</g>
<!-- linodenet_models__linodenet -->
<g id="node9" class="node">
<title>linodenet_models__linodenet</title><style>.edge>path:hover{stroke-width:8}</style>
<ellipse fill="#822b2b" stroke="black" cx="494.05" cy="-797.87" rx="48.17" ry="28.98"/>
<text text-anchor="middle" x="494.05" y="-806.37" font-family="Helvetica,sans-Serif" font-size="10.00" fill="#ffffff">linodenet.</text>
<text text-anchor="middle" x="494.05" y="-795.37" font-family="Helvetica,sans-Serif" font-size="10.00" fill="#ffffff">models.</text>
<text text-anchor="middle" x="494.05" y="-784.37" font-family="Helvetica,sans-Serif" font-size="10.00" fill="#ffffff">_linodenet</text>
</g>
<!-- linodenet_initializations&#45;&gt;linodenet_models__linodenet -->
<g id="edge5" class="edge">
<title>linodenet_initializations&#45;&gt;linodenet_models__linodenet</title><style>.edge>path:hover{stroke-width:8}</style>
<path fill="none" stroke="black" d="M463.16,-454.9C471.27,-465.91 481.85,-479.71 492.05,-491.36"/>
<path fill="none" stroke="black" d="M492.05,-492.36C522.89,-527.54 491.56,-656.11 492.05,-702.89"/>
</g>
<!-- linodenet_models_encoders_iresnet -->
<g id="node13" class="node">
<title>linodenet_models_encoders_iresnet</title><style>.edge>path:hover{stroke-width:8}</style>
<ellipse fill="#9d4343" stroke="black" cx="566.05" cy="-602.13" rx="45.92" ry="36.54"/>
<text text-anchor="middle" x="566.05" y="-616.13" font-family="Helvetica,sans-Serif" font-size="10.00" fill="#ffffff">linodenet.</text>
<text text-anchor="middle" x="566.05" y="-605.13" font-family="Helvetica,sans-Serif" font-size="10.00" fill="#ffffff">models.</text>
<text text-anchor="middle" x="566.05" y="-594.13" font-family="Helvetica,sans-Serif" font-size="10.00" fill="#ffffff">encoders.</text>
<text text-anchor="middle" x="566.05" y="-583.13" font-family="Helvetica,sans-Serif" font-size="10.00" fill="#ffffff">iresnet</text>
</g>
<!-- linodenet_initializations&#45;&gt;linodenet_models_encoders_iresnet -->
<g id="edge6" class="edge">
<title>linodenet_initializations&#45;&gt;linodenet_models_encoders_iresnet</title><style>.edge>path:hover{stroke-width:8}</style>
<path fill="none" stroke="black" d="M492.05,-492.36C516.69,-520.47 553.99,-493.73 568.05,-528.36"/>
<path fill="none" stroke="black" d="M568.05,-529.36C571.32,-537.41 572.66,-546.4 572.88,-555.22"/>
<polygon fill="#db0505" stroke="black" points="569.38,-555.36 572.67,-565.43 576.38,-555.5 569.38,-555.36"/>
</g>
<!-- linodenet_models_system__system -->
<g id="node19" class="node">
<title>linodenet_models_system__system</title><style>.edge>path:hover{stroke-width:8}</style>
<ellipse fill="#a13535" stroke="black" cx="418.05" cy="-602.13" rx="45.92" ry="36.54"/>
<text text-anchor="middle" x="418.05" y="-616.13" font-family="Helvetica,sans-Serif" font-size="10.00" fill="#ffffff">linodenet.</text>
<text text-anchor="middle" x="418.05" y="-605.13" font-family="Helvetica,sans-Serif" font-size="10.00" fill="#ffffff">models.</text>
<text text-anchor="middle" x="418.05" y="-594.13" font-family="Helvetica,sans-Serif" font-size="10.00" fill="#ffffff">system.</text>
<text text-anchor="middle" x="418.05" y="-583.13" font-family="Helvetica,sans-Serif" font-size="10.00" fill="#ffffff">_system</text>
</g>
<!-- linodenet_initializations&#45;&gt;linodenet_models_system__system -->
<g id="edge7" class="edge">
<title>linodenet_initializations&#45;&gt;linodenet_models_system__system</title><style>.edge>path:hover{stroke-width:8}</style>
<path fill="none" stroke="black" d="M416.05,-492.36C405.19,-504.14 421.48,-512.7 418.05,-528.36"/>
<path fill="none" stroke="black" d="M418.05,-529.36C416.24,-537.67 415.39,-546.65 415.12,-555.36"/>
<polygon fill="#db0505" stroke="black" points="411.62,-555.37 415.05,-565.39 418.62,-555.42 411.62,-555.37"/>
</g>
<!-- linodenet_initializations_functional -->
<g id="node5" class="node">
<title>linodenet_initializations_functional</title><style>.edge>path:hover{stroke-width:8}</style>
<ellipse fill="#d60b0b" stroke="black" cx="510.05" cy="-347.94" rx="60.62" ry="28.98"/>
<text text-anchor="middle" x="510.05" y="-356.44" font-family="Helvetica,sans-Serif" font-size="10.00" fill="#ffffff">linodenet.</text>
<text text-anchor="middle" x="510.05" y="-345.44" font-family="Helvetica,sans-Serif" font-size="10.00" fill="#ffffff">initializations.</text>
<text text-anchor="middle" x="510.05" y="-334.44" font-family="Helvetica,sans-Serif" font-size="10.00" fill="#ffffff">functional</text>
</g>
<!-- linodenet_initializations_functional&#45;&gt;linodenet_initializations -->
<g id="edge8" class="edge">
<title>linodenet_initializations_functional&#45;&gt;linodenet_initializations</title><style>.edge>path:hover{stroke-width:8}</style>
<path fill="none" stroke="black" d="M490.75,-375.58C483.97,-384.95 476.32,-395.51 469.44,-405"/>
<polygon fill="#d60b0b" stroke="black" points="466.43,-403.2 463.39,-413.35 472.1,-407.3 466.43,-403.2"/>
</g>
<!-- linodenet_initializations_functional&#45;&gt;linodenet_models__linodenet -->
<g id="edge9" class="edge">
<title>linodenet_initializations_functional&#45;&gt;linodenet_models__linodenet</title><style>.edge>path:hover{stroke-width:8}</style>
<path fill="none" stroke="black" d="M568.05,-435.14C571.45,-475.21 674.79,-580.88 640.05,-601.13"/>
<path fill="none" stroke="black" d="M640.05,-603.13C624.51,-612.21 633.96,-626.35 621.05,-638.9 575.17,-683.52 493.78,-638.91 492.05,-702.89"/>
</g>
<!-- linodenet_initializations_functional&#45;&gt;linodenet_models_encoders_iresnet -->
<g id="edge10" class="edge">
<title>linodenet_initializations_functional&#45;&gt;linodenet_models_encoders_iresnet</title><style>.edge>path:hover{stroke-width:8}</style>
<path fill="none" stroke="black" d="M568.05,-435.14C570.28,-460.03 575.23,-467.43 568.05,-491.36"/>
<path fill="none" stroke="black" d="M568.05,-492.36C563.46,-507.68 562.03,-513.53 568.05,-528.36"/>
</g>
<!-- linodenet_initializations_functional&#45;&gt;linodenet_models_system__system -->
<g id="edge11" class="edge">
<title>linodenet_initializations_functional&#45;&gt;linodenet_models_system__system</title><style>.edge>path:hover{stroke-width:8}</style>
<path fill="none" stroke="black" d="M537.53,-374.07C551.53,-389.46 566.03,-410.51 568.05,-433.14"/>
<path fill="none" stroke="black" d="M568.05,-435.14C575.05,-513.32 434.83,-451.68 418.05,-528.36"/>
</g>
<!-- linodenet_initializations_functional__functional -->
<g id="node6" class="node">
<title>linodenet_initializations_functional__functional</title><style>.edge>path:hover{stroke-width:8}</style>
<ellipse fill="#c24747" stroke="black" cx="510.05" cy="-246.18" rx="60.62" ry="36.54"/>
<text text-anchor="middle" x="510.05" y="-260.18" font-family="Helvetica,sans-Serif" font-size="10.00" fill="#ffffff">linodenet.</text>
<text text-anchor="middle" x="510.05" y="-249.18" font-family="Helvetica,sans-Serif" font-size="10.00" fill="#ffffff">initializations.</text>
<text text-anchor="middle" x="510.05" y="-238.18" font-family="Helvetica,sans-Serif" font-size="10.00" fill="#ffffff">functional.</text>
<text text-anchor="middle" x="510.05" y="-227.18" font-family="Helvetica,sans-Serif" font-size="10.00" fill="#ffffff">_functional</text>
</g>
<!-- linodenet_initializations_functional__functional&#45;&gt;linodenet_initializations_functional -->
<g id="edge12" class="edge">
<title>linodenet_initializations_functional__functional&#45;&gt;linodenet_initializations_functional</title><style>.edge>path:hover{stroke-width:8}</style>
<path fill="none" stroke="black" d="M510.05,-283.19C510.05,-291.44 510.05,-300.22 510.05,-308.56"/>
<polygon fill="#c24747" stroke="black" points="506.55,-308.8 510.05,-318.8 513.55,-308.8 506.55,-308.8"/>
</g>
<!-- linodenet_initializations_modular -->
<g id="node7" class="node">
<title>linodenet_initializations_modular</title><style>.edge>path:hover{stroke-width:8}</style>
<ellipse fill="#c24747" stroke="black" cx="370.05" cy="-347.94" rx="60.62" ry="28.98"/>
<text text-anchor="middle" x="370.05" y="-356.44" font-family="Helvetica,sans-Serif" font-size="10.00" fill="#ffffff">linodenet.</text>
<text text-anchor="middle" x="370.05" y="-345.44" font-family="Helvetica,sans-Serif" font-size="10.00" fill="#ffffff">initializations.</text>
<text text-anchor="middle" x="370.05" y="-334.44" font-family="Helvetica,sans-Serif" font-size="10.00" fill="#ffffff">modular</text>
</g>
<!-- linodenet_initializations_modular&#45;&gt;linodenet_initializations -->
<g id="edge13" class="edge">
<title>linodenet_initializations_modular&#45;&gt;linodenet_initializations</title><style>.edge>path:hover{stroke-width:8}</style>
<path fill="none" stroke="black" d="M394.19,-374.66C403.59,-384.68 414.36,-396.17 423.86,-406.3"/>
<polygon fill="#c24747" stroke="black" points="421.44,-408.83 430.84,-413.73 426.55,-404.04 421.44,-408.83"/>
</g>
<!-- linodenet_models -->
<g id="node8" class="node">
<title>linodenet_models</title><style>.edge>path:hover{stroke-width:8}</style>
<ellipse fill="#db0505" stroke="black" cx="456.05" cy="-884.08" rx="45.92" ry="21.43"/>
<text text-anchor="middle" x="456.05" y="-887.08" font-family="Helvetica,sans-Serif" font-size="10.00" fill="#ffffff">linodenet.</text>
<text text-anchor="middle" x="456.05" y="-876.08" font-family="Helvetica,sans-Serif" font-size="10.00" fill="#ffffff">models</text>
</g>
<!-- linodenet_models&#45;&gt;linodenet -->
<g id="edge14" class="edge">
<title>linodenet_models&#45;&gt;linodenet</title><style>.edge>path:hover{stroke-width:8}</style>
<path fill="none" stroke="black" d="M456.05,-905.47C456.05,-913.32 456.05,-922.42 456.05,-930.84"/>
<polygon fill="#db0505" stroke="black" points="452.55,-930.98 456.05,-940.98 459.55,-930.98 452.55,-930.98"/>
</g>
<!-- linodenet_models__linodenet&#45;&gt;linodenet_models -->
<g id="edge15" class="edge">
<title>linodenet_models__linodenet&#45;&gt;linodenet_models</title><style>.edge>path:hover{stroke-width:8}</style>
<path fill="none" stroke="black" d="M481.82,-825.98C477.81,-834.87 473.33,-844.8 469.24,-853.85"/>
<polygon fill="#822b2b" stroke="black" points="465.93,-852.68 465.01,-863.23 472.31,-855.55 465.93,-852.68"/>
</g>
<!-- linodenet_models_embeddings -->
<g id="node10" class="node">
<title>linodenet_models_embeddings</title><style>.edge>path:hover{stroke-width:8}</style>
<ellipse fill="#b42d2d" stroke="black" cx="726.05" cy="-703.89" rx="54.39" ry="28.98"/>
<text text-anchor="middle" x="726.05" y="-712.39" font-family="Helvetica,sans-Serif" font-size="10.00" fill="#ffffff">linodenet.</text>
<text text-anchor="middle" x="726.05" y="-701.39" font-family="Helvetica,sans-Serif" font-size="10.00" fill="#ffffff">models.</text>
<text text-anchor="middle" x="726.05" y="-690.39" font-family="Helvetica,sans-Serif" font-size="10.00" fill="#ffffff">embeddings</text>
</g>
<!-- linodenet_models_embeddings&#45;&gt;linodenet_models__linodenet -->
<g id="edge16" class="edge">
<title>linodenet_models_embeddings&#45;&gt;linodenet_models__linodenet</title><style>.edge>path:hover{stroke-width:8}</style>
<path fill="none" stroke="black" d="M683.23,-721.87C643.51,-737.61 584.45,-761.03 542.9,-777.5"/>
<polygon fill="#b42d2d" stroke="black" points="541.54,-774.28 533.53,-781.22 544.12,-780.79 541.54,-774.28"/>
</g>
<!-- linodenet_models_embeddings__embeddings -->
<g id="node11" class="node">
<title>linodenet_models_embeddings__embeddings</title><style>.edge>path:hover{stroke-width:8}</style>
<ellipse fill="#b83d3d" stroke="black" cx="726.05" cy="-602.13" rx="57.97" ry="36.54"/>
<text text-anchor="middle" x="726.05" y="-616.13" font-family="Helvetica,sans-Serif" font-size="10.00" fill="#ffffff">linodenet.</text>
<text text-anchor="middle" x="726.05" y="-605.13" font-family="Helvetica,sans-Serif" font-size="10.00" fill="#ffffff">models.</text>
<text text-anchor="middle" x="726.05" y="-594.13" font-family="Helvetica,sans-Serif" font-size="10.00" fill="#ffffff">embeddings.</text>
<text text-anchor="middle" x="726.05" y="-583.13" font-family="Helvetica,sans-Serif" font-size="10.00" fill="#ffffff">_embeddings</text>
</g>
<!-- linodenet_models_embeddings__embeddings&#45;&gt;linodenet_models_embeddings -->
<g id="edge17" class="edge">
<title>linodenet_models_embeddings__embeddings&#45;&gt;linodenet_models_embeddings</title><style>.edge>path:hover{stroke-width:8}</style>
<path fill="none" stroke="black" d="M726.05,-639.14C726.05,-647.38 726.05,-656.17 726.05,-664.51"/>
<polygon fill="#b83d3d" stroke="black" points="722.55,-664.75 726.05,-674.75 729.55,-664.75 722.55,-664.75"/>
</g>
<!-- linodenet_models_encoders_ft_transformer -->
<g id="node12" class="node">
<title>linodenet_models_encoders_ft_transformer</title><style>.edge>path:hover{stroke-width:8}</style>
<ellipse fill="#ac4949" stroke="black" cx="1243.05" cy="-602.13" rx="60.62" ry="36.54"/>
<text text-anchor="middle" x="1243.05" y="-616.13" font-family="Helvetica,sans-Serif" font-size="10.00" fill="#ffffff">linodenet.</text>
<text text-anchor="middle" x="1243.05" y="-605.13" font-family="Helvetica,sans-Serif" font-size="10.00" fill="#ffffff">models.</text>
<text text-anchor="middle" x="1243.05" y="-594.13" font-family="Helvetica,sans-Serif" font-size="10.00" fill="#ffffff">encoders.</text>
<text text-anchor="middle" x="1243.05" y="-583.13" font-family="Helvetica,sans-Serif" font-size="10.00" fill="#ffffff">ft_transformer</text>
</g>
<!-- linodenet_models_encoders_resnet -->
<g id="node14" class="node">
<title>linodenet_models_encoders_resnet</title><style>.edge>path:hover{stroke-width:8}</style>
<ellipse fill="#ac4949" stroke="black" cx="958.05" cy="-602.13" rx="45.92" ry="36.54"/>
<text text-anchor="middle" x="958.05" y="-616.13" font-family="Helvetica,sans-Serif" font-size="10.00" fill="#ffffff">linodenet.</text>
<text text-anchor="middle" x="958.05" y="-605.13" font-family="Helvetica,sans-Serif" font-size="10.00" fill="#ffffff">models.</text>
<text text-anchor="middle" x="958.05" y="-594.13" font-family="Helvetica,sans-Serif" font-size="10.00" fill="#ffffff">encoders.</text>
<text text-anchor="middle" x="958.05" y="-583.13" font-family="Helvetica,sans-Serif" font-size="10.00" fill="#ffffff">resnet</text>
</g>
<!-- linodenet_models_encoders_transformer -->
<g id="node15" class="node">
<title>linodenet_models_encoders_transformer</title><style>.edge>path:hover{stroke-width:8}</style>
<ellipse fill="#ac4949" stroke="black" cx="1074.05" cy="-602.13" rx="52.15" ry="36.54"/>
<text text-anchor="middle" x="1074.05" y="-616.13" font-family="Helvetica,sans-Serif" font-size="10.00" fill="#ffffff">linodenet.</text>
<text text-anchor="middle" x="1074.05" y="-605.13" font-family="Helvetica,sans-Serif" font-size="10.00" fill="#ffffff">models.</text>
<text text-anchor="middle" x="1074.05" y="-594.13" font-family="Helvetica,sans-Serif" font-size="10.00" fill="#ffffff">encoders.</text>
<text text-anchor="middle" x="1074.05" y="-583.13" font-family="Helvetica,sans-Serif" font-size="10.00" fill="#ffffff">transformer</text>
</g>
<!-- linodenet_models_filters -->
<g id="node16" class="node">
<title>linodenet_models_filters</title><style>.edge>path:hover{stroke-width:8}</style>
<ellipse fill="#b42d2d" stroke="black" cx="848.05" cy="-703.89" rx="45.92" ry="28.98"/>
<text text-anchor="middle" x="848.05" y="-712.39" font-family="Helvetica,sans-Serif" font-size="10.00" fill="#ffffff">linodenet.</text>
<text text-anchor="middle" x="848.05" y="-701.39" font-family="Helvetica,sans-Serif" font-size="10.00" fill="#ffffff">models.</text>
<text text-anchor="middle" x="848.05" y="-690.39" font-family="Helvetica,sans-Serif" font-size="10.00" fill="#ffffff">filters</text>
</g>
<!-- linodenet_models_filters&#45;&gt;linodenet_models__linodenet -->
<g id="edge18" class="edge">
<title>linodenet_models_filters&#45;&gt;linodenet_models__linodenet</title><style>.edge>path:hover{stroke-width:8}</style>
<path fill="none" stroke="black" d="M813.35,-722.97C805.5,-726.6 797.1,-730.14 789.05,-732.88 708.16,-760.43 610.63,-778.85 550.48,-788.59"/>
<polygon fill="#b42d2d" stroke="black" points="549.75,-785.16 540.42,-790.19 550.85,-792.07 549.75,-785.16"/>
</g>
<!-- linodenet_models_filters__filters -->
<g id="node17" class="node">
<title>linodenet_models_filters__filters</title><style>.edge>path:hover{stroke-width:8}</style>
<ellipse fill="#b83d3d" stroke="black" cx="848.05" cy="-602.13" rx="45.92" ry="36.54"/>
<text text-anchor="middle" x="848.05" y="-616.13" font-family="Helvetica,sans-Serif" font-size="10.00" fill="#ffffff">linodenet.</text>
<text text-anchor="middle" x="848.05" y="-605.13" font-family="Helvetica,sans-Serif" font-size="10.00" fill="#ffffff">models.</text>
<text text-anchor="middle" x="848.05" y="-594.13" font-family="Helvetica,sans-Serif" font-size="10.00" fill="#ffffff">filters.</text>
<text text-anchor="middle" x="848.05" y="-583.13" font-family="Helvetica,sans-Serif" font-size="10.00" fill="#ffffff">_filters</text>
</g>
<!-- linodenet_models_filters__filters&#45;&gt;linodenet_models_filters -->
<g id="edge19" class="edge">
<title>linodenet_models_filters__filters&#45;&gt;linodenet_models_filters</title><style>.edge>path:hover{stroke-width:8}</style>
<path fill="none" stroke="black" d="M848.05,-639.14C848.05,-647.38 848.05,-656.17 848.05,-664.51"/>
<polygon fill="#b83d3d" stroke="black" points="844.55,-664.75 848.05,-674.75 851.55,-664.75 844.55,-664.75"/>
</g>
<!-- linodenet_models_system -->
<g id="node18" class="node">
<title>linodenet_models_system</title><style>.edge>path:hover{stroke-width:8}</style>
<ellipse fill="#bf2121" stroke="black" cx="418.05" cy="-703.89" rx="45.92" ry="28.98"/>
<text text-anchor="middle" x="418.05" y="-712.39" font-family="Helvetica,sans-Serif" font-size="10.00" fill="#ffffff">linodenet.</text>
<text text-anchor="middle" x="418.05" y="-701.39" font-family="Helvetica,sans-Serif" font-size="10.00" fill="#ffffff">models.</text>
<text text-anchor="middle" x="418.05" y="-690.39" font-family="Helvetica,sans-Serif" font-size="10.00" fill="#ffffff">system</text>
</g>
<!-- linodenet_models_system&#45;&gt;linodenet_models -->
<g id="edge20" class="edge">
<title>linodenet_models_system&#45;&gt;linodenet_models</title><style>.edge>path:hover{stroke-width:8}</style>
<path fill="none" stroke="black" d="M421.08,-733.26C424.06,-758.15 429.3,-795.22 437.05,-826.86 439.2,-835.64 442.11,-844.99 445,-853.51"/>
<polygon fill="#bf2121" stroke="black" points="441.73,-854.75 448.34,-863.03 448.33,-852.43 441.73,-854.75"/>
</g>
<!-- linodenet_models_system&#45;&gt;linodenet_models__linodenet -->
<g id="edge21" class="edge">
<title>linodenet_models_system&#45;&gt;linodenet_models__linodenet</title><style>.edge>path:hover{stroke-width:8}</style>
<path fill="none" stroke="black" d="M438.82,-730.02C447.38,-740.38 457.42,-752.53 466.57,-763.61"/>
<polygon fill="#bf2121" stroke="black" points="463.98,-765.97 473.05,-771.45 469.38,-761.51 463.98,-765.97"/>
</g>
<!-- linodenet_models_system__system&#45;&gt;linodenet_models_system -->
<g id="edge22" class="edge">
<title>linodenet_models_system__system&#45;&gt;linodenet_models_system</title><style>.edge>path:hover{stroke-width:8}</style>
<path fill="none" stroke="black" d="M418.05,-639.14C418.05,-647.38 418.05,-656.17 418.05,-664.51"/>
<polygon fill="#a13535" stroke="black" points="414.55,-664.75 418.05,-674.75 421.55,-664.75 414.55,-664.75"/>
</g>
<!-- linodenet_projections -->
<g id="node20" class="node">
<title>linodenet_projections</title><style>.edge>path:hover{stroke-width:8}</style>
<ellipse fill="#db0505" stroke="black" cx="188.05" cy="-434.14" rx="50.41" ry="21.43"/>
<text text-anchor="middle" x="188.05" y="-437.14" font-family="Helvetica,sans-Serif" font-size="10.00" fill="#ffffff">linodenet.</text>
<text text-anchor="middle" x="188.05" y="-426.14" font-family="Helvetica,sans-Serif" font-size="10.00" fill="#ffffff">projections</text>
</g>
<!-- linodenet_projections&#45;&gt;linodenet -->
<g id="edge23" class="edge">
<title>linodenet_projections&#45;&gt;linodenet</title><style>.edge>path:hover{stroke-width:8}</style>
<path fill="none" stroke="black" d="M268.05,-529.36C241.62,-553.94 308.5,-565.12 306.05,-601.13"/>
<path fill="none" stroke="black" d="M306.05,-603.13C301.84,-665.19 261.41,-839.75 306.05,-883.08"/>
</g>
<!-- linodenet_projections&#45;&gt;linodenet_models__linodenet -->
<g id="edge24" class="edge">
<title>linodenet_projections&#45;&gt;linodenet_models__linodenet</title><style>.edge>path:hover{stroke-width:8}</style>
<path fill="none" stroke="black" d="M306.05,-492.36C318.37,-512.09 330.29,-509.6 344.05,-528.36"/>
<path fill="none" stroke="black" d="M344.05,-529.36C373.29,-569.19 330.73,-601.53 363.05,-638.9 404.92,-687.3 492.42,-638.89 492.05,-702.89"/>
<path fill="none" stroke="black" d="M492.05,-704.89C491.58,-722.44 491.88,-741.88 492.38,-758.35"/>
<polygon fill="#db0505" stroke="black" points="488.89,-758.81 492.73,-768.69 495.89,-758.58 488.89,-758.81"/>
</g>
<!-- linodenet_projections&#45;&gt;linodenet_models_system__system -->
<g id="edge25" class="edge">
<title>linodenet_projections&#45;&gt;linodenet_models_system__system</title><style>.edge>path:hover{stroke-width:8}</style>
<path fill="none" stroke="black" d="M344.05,-529.36C354.14,-543.1 366.96,-556.55 379.09,-568.02"/>
<polygon fill="#db0505" stroke="black" points="376.8,-570.67 386.52,-574.89 381.56,-565.53 376.8,-570.67"/>
</g>
<!-- linodenet_regularizations_functional__functional -->
<g id="node26" class="node">
<title>linodenet_regularizations_functional__functional</title><style>.edge>path:hover{stroke-width:8}</style>
<ellipse fill="#b03a3a" stroke="black" cx="65.05" cy="-602.13" rx="65.11" ry="36.54"/>
<text text-anchor="middle" x="65.05" y="-616.13" font-family="Helvetica,sans-Serif" font-size="10.00" fill="#ffffff">linodenet.</text>
<text text-anchor="middle" x="65.05" y="-605.13" font-family="Helvetica,sans-Serif" font-size="10.00" fill="#ffffff">regularizations.</text>
<text text-anchor="middle" x="65.05" y="-594.13" font-family="Helvetica,sans-Serif" font-size="10.00" fill="#ffffff">functional.</text>
<text text-anchor="middle" x="65.05" y="-583.13" font-family="Helvetica,sans-Serif" font-size="10.00" fill="#ffffff">_functional</text>
</g>
<!-- linodenet_projections&#45;&gt;linodenet_regularizations_functional__functional -->
<g id="edge26" class="edge">
<title>linodenet_projections&#45;&gt;linodenet_regularizations_functional__functional</title><style>.edge>path:hover{stroke-width:8}</style>
<path fill="none" stroke="black" d="M232.83,-443.96C259.08,-451.69 290.13,-465.85 306.05,-491.36"/>
<path fill="none" stroke="black" d="M306.05,-492.36C318.37,-512.09 285.09,-512.51 268.05,-528.36"/>
<path fill="none" stroke="black" d="M268.05,-529.36C232.45,-562.47 180.62,-580.46 138.24,-590.15"/>
<polygon fill="#db0505" stroke="black" points="137.28,-586.78 128.25,-592.32 138.76,-593.62 137.28,-586.78"/>
</g>
<!-- linodenet_projections_functional -->
<g id="node21" class="node">
<title>linodenet_projections_functional</title><style>.edge>path:hover{stroke-width:8}</style>
<ellipse fill="#bf2121" stroke="black" cx="65.05" cy="-347.94" rx="52.15" ry="28.98"/>
<text text-anchor="middle" x="65.05" y="-356.44" font-family="Helvetica,sans-Serif" font-size="10.00" fill="#ffffff">linodenet.</text>
<text text-anchor="middle" x="65.05" y="-345.44" font-family="Helvetica,sans-Serif" font-size="10.00" fill="#ffffff">projections.</text>
<text text-anchor="middle" x="65.05" y="-334.44" font-family="Helvetica,sans-Serif" font-size="10.00" fill="#ffffff">functional</text>
</g>
<!-- linodenet_projections_functional&#45;&gt;linodenet_projections -->
<g id="edge27" class="edge">
<title>linodenet_projections_functional&#45;&gt;linodenet_projections</title><style>.edge>path:hover{stroke-width:8}</style>
<path fill="none" stroke="black" d="M97.37,-371.06C114.86,-383.04 136.46,-397.82 154.19,-409.96"/>
<polygon fill="#bf2121" stroke="black" points="152.32,-412.92 162.54,-415.68 156.27,-407.14 152.32,-412.92"/>
</g>
<!-- linodenet_projections_functional&#45;&gt;linodenet_regularizations_functional__functional -->
<g id="edge28" class="edge">
<title>linodenet_projections_functional&#45;&gt;linodenet_regularizations_functional__functional</title><style>.edge>path:hover{stroke-width:8}</style>
<path fill="none" stroke="black" d="M65.05,-377.38C65.05,-420.52 65.05,-502.97 65.05,-554.83"/>
<polygon fill="#bf2121" stroke="black" points="61.55,-555.09 65.05,-565.09 68.55,-555.09 61.55,-555.09"/>
</g>
<!-- linodenet_projections_functional__functional -->
<g id="node22" class="node">
<title>linodenet_projections_functional__functional</title><style>.edge>path:hover{stroke-width:8}</style>
<ellipse fill="#c24747" stroke="black" cx="65.05" cy="-246.18" rx="52.15" ry="36.54"/>
<text text-anchor="middle" x="65.05" y="-260.18" font-family="Helvetica,sans-Serif" font-size="10.00" fill="#ffffff">linodenet.</text>
<text text-anchor="middle" x="65.05" y="-249.18" font-family="Helvetica,sans-Serif" font-size="10.00" fill="#ffffff">projections.</text>
<text text-anchor="middle" x="65.05" y="-238.18" font-family="Helvetica,sans-Serif" font-size="10.00" fill="#ffffff">functional.</text>
<text text-anchor="middle" x="65.05" y="-227.18" font-family="Helvetica,sans-Serif" font-size="10.00" fill="#ffffff">_functional</text>
</g>
<!-- linodenet_projections_functional__functional&#45;&gt;linodenet_projections_functional -->
<g id="edge29" class="edge">
<title>linodenet_projections_functional__functional&#45;&gt;linodenet_projections_functional</title><style>.edge>path:hover{stroke-width:8}</style>
<path fill="none" stroke="black" d="M65.05,-283.19C65.05,-291.44 65.05,-300.22 65.05,-308.56"/>
<polygon fill="#c24747" stroke="black" points="61.55,-308.8 65.05,-318.8 68.55,-308.8 61.55,-308.8"/>
</g>
<!-- linodenet_projections_modular -->
<g id="node23" class="node">
<title>linodenet_projections_modular</title><style>.edge>path:hover{stroke-width:8}</style>
<ellipse fill="#c24747" stroke="black" cx="188.05" cy="-347.94" rx="52.15" ry="28.98"/>
<text text-anchor="middle" x="188.05" y="-356.44" font-family="Helvetica,sans-Serif" font-size="10.00" fill="#ffffff">linodenet.</text>
<text text-anchor="middle" x="188.05" y="-345.44" font-family="Helvetica,sans-Serif" font-size="10.00" fill="#ffffff">projections.</text>
<text text-anchor="middle" x="188.05" y="-334.44" font-family="Helvetica,sans-Serif" font-size="10.00" fill="#ffffff">modular</text>
</g>
<!-- linodenet_projections_modular&#45;&gt;linodenet_projections -->
<g id="edge30" class="edge">
<title>linodenet_projections_modular&#45;&gt;linodenet_projections</title><style>.edge>path:hover{stroke-width:8}</style>
<path fill="none" stroke="black" d="M188.05,-376.98C188.05,-385.19 188.05,-394.2 188.05,-402.56"/>
<polygon fill="#c24747" stroke="black" points="184.55,-402.68 188.05,-412.68 191.55,-402.68 184.55,-402.68"/>
</g>
<!-- linodenet_regularizations -->
<g id="node24" class="node">
<title>linodenet_regularizations</title><style>.edge>path:hover{stroke-width:8}</style>
<ellipse fill="#bf2121" stroke="black" cx="213.05" cy="-797.87" rx="62.87" ry="21.43"/>
<text text-anchor="middle" x="213.05" y="-800.87" font-family="Helvetica,sans-Serif" font-size="10.00" fill="#ffffff">linodenet.</text>
<text text-anchor="middle" x="213.05" y="-789.87" font-family="Helvetica,sans-Serif" font-size="10.00" fill="#ffffff">regularizations</text>
</g>
<!-- linodenet_regularizations&#45;&gt;linodenet -->
<g id="edge31" class="edge">
<title>linodenet_regularizations&#45;&gt;linodenet</title><style>.edge>path:hover{stroke-width:8}</style>
<path fill="none" stroke="black" d="M234.87,-817.85C253.96,-834.66 282.3,-860.02 306.05,-883.08"/>
<path fill="none" stroke="black" d="M306.05,-885.08C336.96,-915.07 382.54,-934.91 415.34,-946.28"/>
<polygon fill="#bf2121" stroke="black" points="414.48,-949.69 425.07,-949.54 416.7,-943.05 414.48,-949.69"/>
</g>
<!-- linodenet_regularizations_functional -->
<g id="node25" class="node">
<title>linodenet_regularizations_functional</title><style>.edge>path:hover{stroke-width:8}</style>
<ellipse fill="#b42d2d" stroke="black" cx="65.05" cy="-703.89" rx="65.11" ry="28.98"/>
<text text-anchor="middle" x="65.05" y="-712.39" font-family="Helvetica,sans-Serif" font-size="10.00" fill="#ffffff">linodenet.</text>
<text text-anchor="middle" x="65.05" y="-701.39" font-family="Helvetica,sans-Serif" font-size="10.00" fill="#ffffff">regularizations.</text>
<text text-anchor="middle" x="65.05" y="-690.39" font-family="Helvetica,sans-Serif" font-size="10.00" fill="#ffffff">functional</text>
</g>
<!-- linodenet_regularizations_functional&#45;&gt;linodenet_regularizations -->
<g id="edge32" class="edge">
<title>linodenet_regularizations_functional&#45;&gt;linodenet_regularizations</title><style>.edge>path:hover{stroke-width:8}</style>
<path fill="none" stroke="black" d="M102.02,-727.86C124.39,-741.77 152.85,-759.45 175.35,-773.44"/>
<polygon fill="#b42d2d" stroke="black" points="173.63,-776.49 183.97,-778.8 177.33,-770.55 173.63,-776.49"/>
</g>
<!-- linodenet_regularizations_functional__functional&#45;&gt;linodenet_regularizations_functional -->
<g id="edge33" class="edge">
<title>linodenet_regularizations_functional__functional&#45;&gt;linodenet_regularizations_functional</title><style>.edge>path:hover{stroke-width:8}</style>
<path fill="none" stroke="black" d="M65.05,-639.14C65.05,-647.38 65.05,-656.17 65.05,-664.51"/>
<polygon fill="#b03a3a" stroke="black" points="61.55,-664.75 65.05,-674.75 68.55,-664.75 61.55,-664.75"/>
</g>
<!-- linodenet_regularizations_modular -->
<g id="node27" class="node">
<title>linodenet_regularizations_modular</title><style>.edge>path:hover{stroke-width:8}</style>
<ellipse fill="#c24747" stroke="black" cx="213.05" cy="-703.89" rx="65.11" ry="28.98"/>
<text text-anchor="middle" x="213.05" y="-712.39" font-family="Helvetica,sans-Serif" font-size="10.00" fill="#ffffff">linodenet.</text>
<text text-anchor="middle" x="213.05" y="-701.39" font-family="Helvetica,sans-Serif" font-size="10.00" fill="#ffffff">regularizations.</text>
<text text-anchor="middle" x="213.05" y="-690.39" font-family="Helvetica,sans-Serif" font-size="10.00" fill="#ffffff">modular</text>
</g>
<!-- linodenet_regularizations_modular&#45;&gt;linodenet_regularizations -->
<g id="edge34" class="edge">
<title>linodenet_regularizations_modular&#45;&gt;linodenet_regularizations</title><style>.edge>path:hover{stroke-width:8}</style>
<path fill="none" stroke="black" d="M213.05,-732.99C213.05,-743.53 213.05,-755.55 213.05,-766.3"/>
<polygon fill="#c24747" stroke="black" points="209.55,-766.53 213.05,-776.53 216.55,-766.53 209.55,-766.53"/>
</g>
<!-- linodenet_util -->
<g id="node28" class="node">
<title>linodenet_util</title><style>.edge>path:hover{stroke-width:8}</style>
<ellipse fill="#d10505" stroke="black" cx="644.05" cy="-434.14" rx="47.86" ry="18"/>
<text text-anchor="middle" x="644.05" y="-431.64" font-family="Helvetica,sans-Serif" font-size="10.00" fill="#ffffff">linodenet.util</text>
</g>
<!-- linodenet_util&#45;&gt;linodenet -->
<g id="edge35" class="edge">
<title>linodenet_util&#45;&gt;linodenet</title><style>.edge>path:hover{stroke-width:8}</style>
<path fill="none" stroke="black" d="M958.05,-529.36C979.57,-606.7 1071.01,-516.95 1135.05,-565.36 1164.4,-587.54 1145.84,-614.14 1173.05,-638.9 1229.4,-690.16 1305.27,-631.58 1332.05,-702.89"/>
<path fill="none" stroke="black" d="M1332.05,-704.89C1393.79,-869.26 690.93,-939.03 502.07,-954.73"/>
<polygon fill="#d10505" stroke="black" points="501.6,-951.26 491.92,-955.56 502.17,-958.23 501.6,-951.26"/>
</g>
<!-- linodenet_util&#45;&gt;linodenet_models__linodenet -->
<g id="edge36" class="edge">
<title>linodenet_util&#45;&gt;linodenet_models__linodenet</title><style>.edge>path:hover{stroke-width:8}</style>
<path fill="none" stroke="black" d="M689.96,-439.11C777.95,-447.97 961.44,-473.09 958.05,-528.36"/>
<path fill="none" stroke="black" d="M958.05,-529.36C975.99,-593.83 714.24,-527.5 659.05,-565.36 644.21,-575.54 655.61,-592.06 640.05,-601.13"/>
</g>
<!-- linodenet_util&#45;&gt;linodenet_models_embeddings__embeddings -->
<g id="edge37" class="edge">
<title>linodenet_util&#45;&gt;linodenet_models_embeddings__embeddings</title><style>.edge>path:hover{stroke-width:8}</style>
<path fill="none" stroke="black" d="M958.05,-529.36C955.76,-566.82 828.27,-552.4 793.05,-565.36 787.87,-567.26 782.59,-569.5 777.39,-571.92"/>
<polygon fill="#d10505" stroke="black" points="775.6,-568.9 768.13,-576.41 778.66,-575.19 775.6,-568.9"/>
</g>
<!-- linodenet_util&#45;&gt;linodenet_models_encoders_ft_transformer -->
<g id="edge38" class="edge">
<title>linodenet_util&#45;&gt;linodenet_models_encoders_ft_transformer</title><style>.edge>path:hover{stroke-width:8}</style>
<path fill="none" stroke="black" d="M958.05,-529.36C955.16,-576.62 1122.93,-551.03 1168.05,-565.36 1174.86,-567.52 1181.84,-570.18 1188.67,-573.07"/>
<polygon fill="#d10505" stroke="black" points="1187.3,-576.29 1197.86,-577.12 1190.12,-569.89 1187.3,-576.29"/>
</g>
<!-- linodenet_util&#45;&gt;linodenet_models_encoders_iresnet -->
<g id="edge39" class="edge">
<title>linodenet_util&#45;&gt;linodenet_models_encoders_iresnet</title><style>.edge>path:hover{stroke-width:8}</style>
<path fill="none" stroke="black" d="M611.8,-447.53C593.98,-456.53 574.22,-470.76 568.05,-491.36"/>
</g>
<!-- linodenet_util&#45;&gt;linodenet_models_encoders_resnet -->
<g id="edge40" class="edge">
<title>linodenet_util&#45;&gt;linodenet_models_encoders_resnet</title><style>.edge>path:hover{stroke-width:8}</style>
<path fill="none" stroke="black" d="M958.05,-529.36C957.55,-537.67 957.3,-546.53 957.22,-555.09"/>
<polygon fill="#d10505" stroke="black" points="953.72,-555.32 957.19,-565.33 960.72,-555.33 953.72,-555.32"/>
</g>
<!-- linodenet_util&#45;&gt;linodenet_models_encoders_transformer -->
<g id="edge41" class="edge">
<title>linodenet_util&#45;&gt;linodenet_models_encoders_transformer</title><style>.edge>path:hover{stroke-width:8}</style>
<path fill="none" stroke="black" d="M958.05,-529.36C957.93,-531.46 993.7,-553.35 1025.55,-572.41"/>
<polygon fill="#d10505" stroke="black" points="1024.01,-575.57 1034.39,-577.69 1027.6,-569.56 1024.01,-575.57"/>
</g>
<!-- linodenet_util&#45;&gt;linodenet_models_filters__filters -->
<g id="edge42" class="edge">
<title>linodenet_util&#45;&gt;linodenet_models_filters__filters</title><style>.edge>path:hover{stroke-width:8}</style>
<path fill="none" stroke="black" d="M958.05,-529.36C958.05,-529.49 922.37,-552.75 891.66,-572.75"/>
<polygon fill="#d10505" stroke="black" points="889.63,-569.89 883.16,-578.28 893.45,-575.76 889.63,-569.89"/>
</g>
<!-- linodenet_util&#45;&gt;linodenet_models_system__system -->
<g id="edge43" class="edge">
<title>linodenet_util&#45;&gt;linodenet_models_system__system</title><style>.edge>path:hover{stroke-width:8}</style>
<path fill="none" stroke="black" d="M619.09,-449.63C600.72,-460.55 575.36,-476.19 554.05,-491.36 520.12,-515.52 483.46,-545.34 456.77,-567.8"/>
<polygon fill="#d10505" stroke="black" points="454.2,-565.39 448.82,-574.51 458.71,-570.73 454.2,-565.39"/>
</g>
<!-- linodenet_util__util&#45;&gt;linodenet_util -->
<g id="edge44" class="edge">
<title>linodenet_util__util&#45;&gt;linodenet_util</title><style>.edge>path:hover{stroke-width:8}</style>
<path fill="none" stroke="black" d="M658.85,-268.41C643.51,-281.1 626.38,-298.68 618.05,-318.95 606.1,-348.04 618.08,-383.67 629.44,-407.31"/>
<polygon fill="#d02424" stroke="black" points="626.39,-409.03 634.04,-416.36 632.63,-405.85 626.39,-409.03"/>
</g>
<!-- linodenet_util_generic_layers -->
<g id="node30" class="node">
<title>linodenet_util_generic_layers</title><style>.edge>path:hover{stroke-width:8}</style>
<ellipse fill="#b03a3a" stroke="black" cx="689.05" cy="-347.94" rx="62.45" ry="28.98"/>
<text text-anchor="middle" x="689.05" y="-356.44" font-family="Helvetica,sans-Serif" font-size="10.00" fill="#ffffff">linodenet.</text>
<text text-anchor="middle" x="689.05" y="-345.44" font-family="Helvetica,sans-Serif" font-size="10.00" fill="#ffffff">util.</text>
<text text-anchor="middle" x="689.05" y="-334.44" font-family="Helvetica,sans-Serif" font-size="10.00" fill="#ffffff">generic_layers</text>
</g>
<!-- linodenet_util__util&#45;&gt;linodenet_util_generic_layers -->
<g id="edge45" class="edge">
<title>linodenet_util__util&#45;&gt;linodenet_util_generic_layers</title><style>.edge>path:hover{stroke-width:8}</style>
<path fill="none" stroke="black" d="M689.05,-275.23C689.05,-285.54 689.05,-297.4 689.05,-308.46"/>
<polygon fill="#d02424" stroke="black" points="685.55,-308.75 689.05,-318.75 692.55,-308.75 685.55,-308.75"/>
</g>
<!-- linodenet_util_layers -->
<g id="node31" class="node">
<title>linodenet_util_layers</title><style>.edge>path:hover{stroke-width:8}</style>
<ellipse fill="#b03a3a" stroke="black" cx="815.05" cy="-347.94" rx="45.92" ry="28.98"/>
<text text-anchor="middle" x="815.05" y="-356.44" font-family="Helvetica,sans-Serif" font-size="10.00" fill="#ffffff">linodenet.</text>
<text text-anchor="middle" x="815.05" y="-345.44" font-family="Helvetica,sans-Serif" font-size="10.00" fill="#ffffff">util.</text>
<text text-anchor="middle" x="815.05" y="-334.44" font-family="Helvetica,sans-Serif" font-size="10.00" fill="#ffffff">layers</text>
</g>
<!-- linodenet_util__util&#45;&gt;linodenet_util_layers -->
<g id="edge46" class="edge">
<title>linodenet_util__util&#45;&gt;linodenet_util_layers</title><style>.edge>path:hover{stroke-width:8}</style>
<path fill="none" stroke="black" d="M717.02,-269.32C735.37,-283.85 759.54,-302.98 779.28,-318.62"/>
<polygon fill="#d02424" stroke="black" points="777.16,-321.4 787.17,-324.86 781.5,-315.91 777.16,-321.4"/>
</g>
<!-- linodenet_util_generic_layers&#45;&gt;linodenet_util -->
<g id="edge47" class="edge">
<title>linodenet_util_generic_layers&#45;&gt;linodenet_util</title><style>.edge>path:hover{stroke-width:8}</style>
<path fill="none" stroke="black" d="M674.32,-376.51C669.04,-386.4 663.1,-397.5 657.9,-407.24"/>
<polygon fill="#b03a3a" stroke="black" points="654.8,-405.61 653.17,-416.08 660.97,-408.91 654.8,-405.61"/>
</g>
<!-- linodenet_util_layers&#45;&gt;linodenet_util -->
<g id="edge48" class="edge">
<title>linodenet_util_layers&#45;&gt;linodenet_util</title><style>.edge>path:hover{stroke-width:8}</style>
<path fill="none" stroke="black" d="M779.9,-366.96C773.31,-370.3 766.48,-373.74 760.05,-376.93 734.1,-389.82 704.72,-404.06 682.02,-414.98"/>
<polygon fill="#b03a3a" stroke="black" points="680.23,-411.95 672.73,-419.44 683.26,-418.26 680.23,-411.95"/>
</g>
</g>
</svg>
